<svg width="256" height="256" viewBox="0 0 256 256" fill="none" xmlns="http://www.w3.org/2000/svg">
<rect width="256" height="256" fill="#FF7A04"/>
<path fill-rule="evenodd" clip-rule="evenodd" d="M177.8 169.345C175.675 168.884 173.642 170.087 171.692 172.954C170.145 175.192 169.111 177.511 168.594 179.923C168.307 181.3 168.164 182.733 168.164 184.223C168.164 185.944 168.507 187.72 169.193 189.558C170.053 191.796 171.2 193.055 172.634 193.342C174.067 193.629 175.644 192.999 177.365 191.448C179.541 189.502 181.03 186.604 181.839 182.759C182.126 181.382 182.269 179.948 182.269 178.458C182.269 176.738 181.926 174.961 181.24 173.128C180.385 170.891 179.233 169.631 177.8 169.345Z" fill="white"/>
<path fill-rule="evenodd" clip-rule="evenodd" d="M141.059 169.345C138.934 168.884 136.901 170.087 134.95 172.954C133.404 175.192 132.37 177.511 131.858 179.923C131.571 181.3 131.428 182.733 131.428 184.223C131.428 185.944 131.771 187.72 132.462 189.558C133.322 191.796 134.469 193.055 135.903 193.342C137.336 193.629 138.913 192.999 140.634 191.448C142.815 189.502 144.3 186.604 145.103 182.759C145.39 181.382 145.533 179.948 145.533 178.458C145.533 176.738 145.19 174.961 144.499 173.128C143.639 170.891 142.492 169.631 141.059 169.345Z" fill="white"/>
<path fill-rule="evenodd" clip-rule="evenodd" d="M186.099 145.194H69.3581C61.9802 145.194 56 151.174 56 158.552V203.07C56 210.448 61.9802 216.428 69.3581 216.428H124.669L149.957 230.508L144.228 216.428H186.099C193.477 216.428 199.457 210.448 199.457 203.07V158.552C199.462 151.174 193.482 145.194 186.099 145.194ZM114.788 203.838C114.89 205.328 114.67 206.608 114.107 207.678C113.395 208.989 112.356 209.7 110.979 209.793C109.432 209.9 107.891 209.178 106.34 207.617C100.887 202.026 96.5658 193.706 93.3709 182.667C89.5872 190.178 86.7661 195.805 84.9024 199.558C81.4618 206.183 78.5126 209.578 76.0499 209.752C74.4474 209.864 73.0906 208.523 71.9744 205.727C68.9638 198.068 65.7331 183.23 62.2874 161.229C62.0621 159.693 62.3744 158.378 63.2141 157.282C64.0589 156.186 65.2826 155.582 66.88 155.469C69.8547 155.26 71.5648 156.662 72.0051 159.678C73.8432 171.91 75.8144 182.288 77.9085 190.818L90.7546 166.375C91.9219 164.168 93.3914 162.996 95.1629 162.873C97.7382 162.694 99.351 164.332 99.991 167.793C101.46 175.565 103.309 182.247 105.541 187.838C107.077 172.959 109.658 162.197 113.267 155.562C114.132 153.949 115.423 153.084 117.138 152.961C118.51 152.863 119.744 153.252 120.84 154.123C121.935 154.993 122.534 156.115 122.627 157.487C122.698 158.516 122.504 159.453 122.048 160.287C119.764 164.532 117.875 171.592 116.385 181.464C114.947 191.007 114.409 198.462 114.788 203.838ZM150.781 194.627C147.284 200.474 142.697 203.398 137.019 203.398C135.985 203.398 134.925 203.28 133.834 203.055C129.702 202.195 126.579 199.932 124.46 196.26C122.57 193.05 121.623 189.18 121.623 184.648C121.623 178.627 123.144 173.123 126.18 168.136C129.733 162.289 134.321 159.366 139.942 159.366C140.977 159.366 142.036 159.484 143.127 159.709C147.254 160.569 150.377 162.837 152.502 166.503C154.391 169.657 155.338 173.497 155.338 178.028C155.338 184.049 153.818 189.584 150.781 194.627ZM187.517 194.627C184.02 200.474 179.433 203.398 173.755 203.398C172.726 203.398 171.661 203.28 170.575 203.055C166.444 202.195 163.32 199.932 161.201 196.26C159.306 193.05 158.359 189.18 158.359 184.648C158.359 178.627 159.88 173.123 162.916 168.136C166.469 162.289 171.057 159.366 176.678 159.366C177.708 159.366 178.767 159.484 179.858 159.709C183.985 160.569 187.113 162.837 189.233 166.503C191.127 169.657 192.074 173.497 192.074 178.028C192.079 184.049 190.559 189.584 187.517 194.627Z" fill="white"/>
<path d="M56 26H66.752V62.9664C69.6192 54.0576 76.48 48.4256 85.4912 48.4256C97.472 48.4256 105.664 57.744 105.664 70.544V101.776H94.912V72.1824C94.912 64.0928 88.9728 58.256 81.3952 58.256C72.7936 58.256 66.752 64.0928 66.752 72.1824V101.776H56V26V26Z" fill="white"/>
<path d="M125.837 89.1808C129.523 89.1808 132.493 92.2528 132.493 95.8368C132.493 99.5232 129.523 102.595 125.837 102.595C122.15 102.595 119.078 99.5232 119.078 95.8368C119.078 92.2528 122.15 89.1808 125.837 89.1808ZM119.898 49.4496V30.096H131.776V49.4496L129.83 80.6816H121.741L119.898 49.4496Z" fill="white"/>
<path d="M167.923 48.4256C177.856 48.4256 185.434 54.7744 188.71 64.2976V49.4496H199.462V96.144C199.462 111.504 187.482 123.28 171.712 123.28C160.346 123.28 151.437 117.238 147.136 108.534L156.864 103.722C159.629 109.661 164.851 113.45 171.712 113.45C181.133 113.45 188.71 106.077 188.71 96.144V85.904C185.434 95.3248 177.856 101.674 167.923 101.674C154.406 101.674 144.269 90.2048 144.269 75.0496C144.269 59.9968 154.406 48.4256 167.923 48.4256ZM171.814 91.8432C181.542 91.8432 188.71 84.5728 188.71 75.0496C188.71 65.5264 181.542 58.3584 171.814 58.3584C162.598 58.3584 155.328 65.5264 155.328 75.0496C155.328 84.5728 162.598 91.8432 171.814 91.8432Z" fill="white"/>
</svg>
